<svg width="1440" height="1024" viewBox="0 0 1440 1024" fill="none" xmlns="http://www.w3.org/2000/svg">
<circle cx="1399.5" cy="340.5" r="15.5" fill="#FFB900"/>
<circle cx="1399.5" cy="340.5" r="15.5" fill="#EA4335"/>
<circle cx="469.5" cy="85.5" r="15.5" fill="#FFB900"/>
<circle cx="469.5" cy="85.5" r="15.5" fill="#1F87FC"/>
<circle cx="645.5" cy="804.5" r="15.5" fill="#FFB900"/>
<circle cx="645.5" cy="804.5" r="15.5" fill="#1F87FC"/>
<circle cx="1390" cy="654" r="22" fill="#FFB900"/>
<circle cx="1390" cy="654" r="22" fill="#00AB47"/>
<circle cx="225" cy="155" r="22" fill="#FFB900"/>
<circle cx="225" cy="155" r="22" fill="#00AB47"/>
<circle cx="931" cy="916" r="22" fill="#FFB900"/>
<circle cx="931" cy="916" r="22" fill="#00AB47"/>
<rect x="1273.5" y="56.5" width="13" height="13" stroke="#1F87FC" stroke-width="3"/>
<rect x="1273.5" y="102.5" width="13" height="13" stroke="#1F87FC" stroke-width="3"/>
<rect x="1273.5" y="148.5" width="13" height="13" stroke="#1F87FC" stroke-width="3"/>
<rect x="177.553" y="744.942" width="13" height="13" transform="rotate(90.4823 177.553 744.942)" stroke="#1F87FC" stroke-width="3"/>
<rect x="131.554" y="744.555" width="13" height="13" transform="rotate(90.4823 131.554 744.555)" stroke="#1F87FC" stroke-width="3"/>
<rect x="85.556" y="744.168" width="13" height="13" transform="rotate(90.4823 85.556 744.168)" stroke="#1F87FC" stroke-width="3"/>
<circle cx="1036.5" cy="200.5" r="39.5" fill="#FFB900"/>
<circle cx="109.5" cy="324.5" r="15.5" fill="#FFB900"/>
<circle cx="109.5" cy="324.5" r="15.5" fill="#EA4335"/>
<circle cx="335.5" cy="893.5" r="39.5" fill="#FFB900"/>
</svg>
