<svg width="375" height="812" viewBox="0 0 375 812" fill="none" xmlns="http://www.w3.org/2000/svg">
<circle cx="237.491" cy="60.4907" r="13.4907" fill="#FFB900"/>
<circle cx="237.491" cy="60.4907" r="13.4907" fill="#1F87FC"/>
<circle cx="98.1481" cy="79.1481" r="19.1481" fill="#FFB900"/>
<circle cx="98.1481" cy="79.1481" r="19.1481" fill="#00AB47"/>
<circle cx="36.4907" cy="161.491" r="13.4907" fill="#FFB900"/>
<circle cx="36.4907" cy="161.491" r="13.4907" fill="#EA4335"/>
<circle cx="319.142" cy="506.858" r="13.8584" fill="#FFB900"/>
<circle cx="319.142" cy="506.858" r="13.8584" fill="#00AB47"/>
<circle cx="209.004" cy="671.9" r="13.8584" fill="#FFB900"/>
<circle cx="209.004" cy="671.9" r="13.8584" fill="#00AB47"/>
<circle cx="103.882" cy="607.726" r="24.8822" fill="#FFB900"/>
<rect x="157.553" y="744.942" width="13" height="13" transform="rotate(90.4823 157.553 744.942)" stroke="#1F87FC" stroke-width="3"/>
<rect x="111.555" y="744.555" width="13" height="13" transform="rotate(90.4823 111.555 744.555)" stroke="#1F87FC" stroke-width="3"/>
<rect x="65.556" y="744.168" width="13" height="13" transform="rotate(90.4823 65.556 744.168)" stroke="#1F87FC" stroke-width="3"/>
<rect x="311.5" y="56.5" width="13" height="13" stroke="#1F87FC" stroke-width="3"/>
<rect x="311.5" y="102.5" width="13" height="13" stroke="#1F87FC" stroke-width="3"/>
<rect x="311.5" y="148.5" width="13" height="13" stroke="#1F87FC" stroke-width="3"/>
</svg>
