<svg id="Layer_1" data-name="Layer 1" xmlns="http://www.w3.org/2000/svg" viewBox="0 0 250 600"><defs><style>.cls-1{fill:#f1f2f2;}.cls-2{fill:#fff;}.cls-3{fill:#010101;}.cls-34,.cls-36,.cls-37,.cls-4,.cls-40,.cls-42,.cls-5,.cls-6,.cls-7,.cls-8,.cls-9{fill:none;stroke-linecap:round;}.cls-37,.cls-4,.cls-6{stroke:#33a852;}.cls-34,.cls-36,.cls-37,.cls-4,.cls-40,.cls-42,.cls-5,.cls-9{stroke-miterlimit:10;}.cls-4,.cls-5,.cls-6,.cls-7,.cls-8,.cls-9{stroke-width:2px;}.cls-40,.cls-5,.cls-7{stroke:#547dbf;}.cls-6,.cls-7,.cls-8{stroke-linejoin:round;}.cls-34,.cls-42,.cls-8{stroke:#ea4435;}.cls-36,.cls-9{stroke:#f9bc15;}.cls-10{fill:#ee2424;}.cls-10,.cls-11,.cls-12,.cls-13,.cls-14{fill-rule:evenodd;}.cls-11{fill:#007ec4;}.cls-12{fill:#00a04e;}.cls-13{fill:#fbad18;}.cls-14,.cls-15{fill:#646d6f;}.cls-16{font-size:26px;fill:#3977ed;}.cls-16,.cls-22{font-family:GoogleSansDisplay-Medium, Google Sans Display;font-weight:500;}.cls-17{letter-spacing:-0.02em;}.cls-18{letter-spacing:-0.01em;}.cls-19{letter-spacing:0em;}.cls-20{letter-spacing:0em;}.cls-21,.cls-22{fill:#757b80;}.cls-22{font-size:18px;}.cls-23{letter-spacing:-0.03em;}.cls-24{letter-spacing:-0.02em;}.cls-25{letter-spacing:-0.01em;}.cls-26{letter-spacing:-0.02em;}.cls-27{letter-spacing:0em;}.cls-28{letter-spacing:-0.01em;}.cls-29{letter-spacing:-0.02em;}.cls-30{letter-spacing:-0.02em;}.cls-31{letter-spacing:-0.02em;}.cls-32{letter-spacing:0em;}.cls-33{opacity:0.59;}.cls-34,.cls-36,.cls-37{stroke-width:5px;}.cls-35{opacity:0.56;}.cls-38{opacity:0.33;}.cls-39{opacity:0.57;}.cls-40,.cls-42{stroke-width:4px;}.cls-41{opacity:0.26;}</style></defs><title>Untitled-5</title><path class="cls-1" d="M21.45,405.31A21.28,21.28,0,0,1,.17,426.59V584.2h8a13.92,13.92,0,1,1,27.83,0H49.33a13.92,13.92,0,1,1,27.83,0H90.5a13.92,13.92,0,1,1,27.83,0h13.34a13.92,13.92,0,1,1,27.83,0h13.34a13.92,13.92,0,1,1,27.83,0H214a13.92,13.92,0,1,1,27.83,0h8V426.59a21.28,21.28,0,0,1,0-42.56V.6h-8A13.92,13.92,0,0,1,214,.6H200.67a13.92,13.92,0,0,1-27.83,0H159.5a13.92,13.92,0,0,1-27.83,0H118.33A13.92,13.92,0,0,1,90.5.6H77.16A13.92,13.92,0,0,1,49.33.6H36A13.92,13.92,0,0,1,8.16.6h-8V384A21.28,21.28,0,0,1,21.45,405.31ZM223.91,403a3.93,3.93,0,1,1-3.93,3.92A3.92,3.92,0,0,1,223.91,403Zm-11.61,0a3.93,3.93,0,1,1-3.92,3.92A3.91,3.91,0,0,1,212.3,403Zm-11.61,0a3.93,3.93,0,1,1-3.92,3.92A3.91,3.91,0,0,1,200.69,403ZM189,403a3.93,3.93,0,1,1-3.92,3.92A3.92,3.92,0,0,1,189,403Zm-11.6,0a3.93,3.93,0,1,1-3.93,3.92A3.92,3.92,0,0,1,177.36,403Zm-11.61,0a3.93,3.93,0,1,1-3.93,3.92A3.91,3.91,0,0,1,165.75,403Zm-11.61,0a3.93,3.93,0,1,1-3.92,3.92A3.91,3.91,0,0,1,154.14,403Zm-11.61,0a3.93,3.93,0,1,1-3.92,3.92A3.92,3.92,0,0,1,142.53,403Zm-11.61,0a3.93,3.93,0,1,1-3.92,3.92A3.92,3.92,0,0,1,130.92,403Zm-11.84,0a3.93,3.93,0,1,1-3.93,3.92A3.92,3.92,0,0,1,119.08,403Zm-11.61,0a3.93,3.93,0,1,1-3.93,3.92A3.92,3.92,0,0,1,107.47,403Zm-11.61,0a3.93,3.93,0,1,1-3.92,3.92A3.91,3.91,0,0,1,95.86,403Zm-11.61,0a3.93,3.93,0,1,1-3.92,3.92A3.92,3.92,0,0,1,84.25,403Zm-11.61,0a3.93,3.93,0,1,1-3.92,3.92A3.92,3.92,0,0,1,72.64,403ZM61,403a3.93,3.93,0,1,1-3.93,3.92A3.92,3.92,0,0,1,61,403Zm-11.73,0a3.93,3.93,0,1,1-3.92,3.92A3.91,3.91,0,0,1,49.31,403ZM37.7,403a3.93,3.93,0,1,1-3.92,3.92A3.91,3.91,0,0,1,37.7,403Zm-11.61,0a3.93,3.93,0,1,1-3.92,3.92A3.92,3.92,0,0,1,26.09,403Z"/><rect class="cls-2" x="58.93" y="444.6" width="124.41" height="124.41"/><rect class="cls-3" x="66.71" y="452.38" width="4.35" height="4.35"/><rect class="cls-3" x="71.06" y="452.38" width="4.35" height="4.35"/><rect class="cls-3" x="75.42" y="452.38" width="4.35" height="4.35"/><rect class="cls-3" x="79.77" y="452.38" width="4.35" height="4.35"/><rect class="cls-3" x="84.12" y="452.38" width="4.35" height="4.35"/><rect class="cls-3" x="88.48" y="452.38" width="4.35" height="4.35"/><rect class="cls-3" x="92.83" y="452.38" width="4.35" height="4.35"/><rect class="cls-3" x="101.54" y="452.38" width="4.35" height="4.35"/><rect class="cls-3" x="105.9" y="452.38" width="4.35" height="4.35"/><rect class="cls-3" x="110.25" y="452.38" width="4.35" height="4.35"/><rect class="cls-3" x="114.6" y="452.38" width="4.35" height="4.35"/><rect class="cls-3" x="145.09" y="452.38" width="4.35" height="4.35"/><rect class="cls-3" x="149.44" y="452.38" width="4.35" height="4.35"/><rect class="cls-3" x="153.79" y="452.38" width="4.35" height="4.35"/><rect class="cls-3" x="158.15" y="452.38" width="4.35" height="4.35"/><rect class="cls-3" x="162.5" y="452.38" width="4.35" height="4.35"/><rect class="cls-3" x="166.86" y="452.38" width="4.35" height="4.35"/><rect class="cls-3" x="171.21" y="452.38" width="4.35" height="4.35"/><rect class="cls-3" x="66.71" y="456.73" width="4.35" height="4.35"/><rect class="cls-3" x="92.83" y="456.73" width="4.35" height="4.35"/><rect class="cls-3" x="114.6" y="456.73" width="4.35" height="4.35"/><rect class="cls-3" x="118.96" y="456.73" width="4.35" height="4.35"/><rect class="cls-3" x="123.31" y="456.73" width="4.35" height="4.35"/><rect class="cls-3" x="127.67" y="456.73" width="4.35" height="4.35"/><rect class="cls-3" x="136.38" y="456.73" width="4.35" height="4.35"/><rect class="cls-3" x="145.09" y="456.73" width="4.35" height="4.35"/><rect class="cls-3" x="171.21" y="456.73" width="4.35" height="4.35"/><rect class="cls-3" x="66.71" y="461.09" width="4.35" height="4.35"/><rect class="cls-3" x="75.42" y="461.09" width="4.35" height="4.35"/><rect class="cls-3" x="79.77" y="461.09" width="4.35" height="4.35"/><rect class="cls-3" x="84.12" y="461.09" width="4.35" height="4.35"/><rect class="cls-3" x="92.83" y="461.09" width="4.35" height="4.35"/><rect class="cls-3" x="105.9" y="461.09" width="4.35" height="4.35"/><rect class="cls-3" x="114.6" y="461.09" width="4.35" height="4.35"/><rect class="cls-3" x="123.31" y="461.09" width="4.35" height="4.35"/><rect class="cls-3" x="132.02" y="461.09" width="4.35" height="4.35"/><rect class="cls-3" x="136.38" y="461.09" width="4.35" height="4.35"/><rect class="cls-3" x="145.09" y="461.09" width="4.35" height="4.35"/><rect class="cls-3" x="153.79" y="461.09" width="4.35" height="4.35"/><rect class="cls-3" x="158.15" y="461.09" width="4.35" height="4.35"/><rect class="cls-3" x="162.5" y="461.09" width="4.35" height="4.35"/><rect class="cls-3" x="171.21" y="461.09" width="4.35" height="4.35"/><rect class="cls-3" x="66.71" y="465.44" width="4.35" height="4.35"/><rect class="cls-3" x="75.42" y="465.44" width="4.35" height="4.35"/><rect class="cls-3" x="79.77" y="465.44" width="4.35" height="4.35"/><rect class="cls-3" x="84.12" y="465.44" width="4.35" height="4.35"/><rect class="cls-3" x="92.83" y="465.44" width="4.35" height="4.35"/><rect class="cls-3" x="110.25" y="465.44" width="4.35" height="4.35"/><rect class="cls-3" x="114.6" y="465.44" width="4.35" height="4.35"/><rect class="cls-3" x="123.31" y="465.44" width="4.35" height="4.35"/><rect class="cls-3" x="132.02" y="465.44" width="4.35" height="4.35"/><rect class="cls-3" x="136.38" y="465.44" width="4.35" height="4.35"/><rect class="cls-3" x="145.09" y="465.44" width="4.35" height="4.35"/><rect class="cls-3" x="153.79" y="465.44" width="4.35" height="4.35"/><rect class="cls-3" x="158.15" y="465.44" width="4.35" height="4.35"/><rect class="cls-3" x="162.5" y="465.44" width="4.35" height="4.35"/><rect class="cls-3" x="171.21" y="465.44" width="4.35" height="4.35"/><rect class="cls-3" x="66.71" y="469.8" width="4.35" height="4.35"/><rect class="cls-3" x="75.42" y="469.8" width="4.35" height="4.35"/><rect class="cls-3" x="79.77" y="469.8" width="4.35" height="4.35"/><rect class="cls-3" x="84.12" y="469.8" width="4.35" height="4.35"/><rect class="cls-3" x="92.83" y="469.8" width="4.35" height="4.35"/><rect class="cls-3" x="110.25" y="469.8" width="4.35" height="4.35"/><rect class="cls-3" x="114.6" y="469.8" width="4.35" height="4.35"/><rect class="cls-3" x="118.96" y="469.8" width="4.35" height="4.35"/><rect class="cls-3" x="127.67" y="469.8" width="4.35" height="4.35"/><rect class="cls-3" x="136.38" y="469.8" width="4.35" height="4.35"/><rect class="cls-3" x="145.09" y="469.8" width="4.35" height="4.35"/><rect class="cls-3" x="153.79" y="469.8" width="4.35" height="4.35"/><rect class="cls-3" x="158.15" y="469.8" width="4.35" height="4.35"/><rect class="cls-3" x="162.5" y="469.8" width="4.35" height="4.35"/><rect class="cls-3" x="171.21" y="469.8" width="4.35" height="4.35"/><rect class="cls-3" x="66.71" y="474.15" width="4.35" height="4.35"/><rect class="cls-3" x="92.83" y="474.15" width="4.35" height="4.35"/><rect class="cls-3" x="105.9" y="474.15" width="4.35" height="4.35"/><rect class="cls-3" x="114.6" y="474.15" width="4.35" height="4.35"/><rect class="cls-3" x="127.67" y="474.15" width="4.35" height="4.35"/><rect class="cls-3" x="136.38" y="474.15" width="4.35" height="4.35"/><rect class="cls-3" x="145.09" y="474.15" width="4.35" height="4.35"/><rect class="cls-3" x="171.21" y="474.15" width="4.35" height="4.35"/><rect class="cls-3" x="66.71" y="478.5" width="4.35" height="4.35"/><rect class="cls-3" x="71.06" y="478.5" width="4.35" height="4.35"/><rect class="cls-3" x="75.42" y="478.5" width="4.35" height="4.35"/><rect class="cls-3" x="79.77" y="478.5" width="4.35" height="4.35"/><rect class="cls-3" x="84.12" y="478.5" width="4.35" height="4.35"/><rect class="cls-3" x="88.48" y="478.5" width="4.35" height="4.35"/><rect class="cls-3" x="92.83" y="478.5" width="4.35" height="4.35"/><rect class="cls-3" x="101.54" y="478.5" width="4.35" height="4.35"/><rect class="cls-3" x="110.25" y="478.5" width="4.35" height="4.35"/><rect class="cls-3" x="118.96" y="478.5" width="4.35" height="4.35"/><rect class="cls-3" x="127.67" y="478.5" width="4.35" height="4.35"/><rect class="cls-3" x="136.38" y="478.5" width="4.35" height="4.35"/><rect class="cls-3" x="145.09" y="478.5" width="4.35" height="4.35"/><rect class="cls-3" x="149.44" y="478.5" width="4.35" height="4.35"/><rect class="cls-3" x="153.79" y="478.5" width="4.35" height="4.35"/><rect class="cls-3" x="158.15" y="478.5" width="4.35" height="4.35"/><rect class="cls-3" x="162.5" y="478.5" width="4.35" height="4.35"/><rect class="cls-3" x="166.86" y="478.5" width="4.35" height="4.35"/><rect class="cls-3" x="171.21" y="478.5" width="4.35" height="4.35"/><rect class="cls-3" x="101.54" y="482.86" width="4.35" height="4.35"/><rect class="cls-3" x="105.9" y="482.86" width="4.35" height="4.35"/><rect class="cls-3" x="118.96" y="482.86" width="4.35" height="4.35"/><rect class="cls-3" x="123.31" y="482.86" width="4.35" height="4.35"/><rect class="cls-3" x="66.71" y="487.21" width="4.35" height="4.35"/><rect class="cls-3" x="71.06" y="487.21" width="4.35" height="4.35"/><rect class="cls-3" x="79.77" y="487.21" width="4.35" height="4.35"/><rect class="cls-3" x="84.12" y="487.21" width="4.35" height="4.35"/><rect class="cls-3" x="92.83" y="487.21" width="4.35" height="4.35"/><rect class="cls-3" x="105.9" y="487.21" width="4.35" height="4.35"/><rect class="cls-3" x="118.96" y="487.21" width="4.35" height="4.35"/><rect class="cls-3" x="127.67" y="487.21" width="4.35" height="4.35"/><rect class="cls-3" x="132.02" y="487.21" width="4.35" height="4.35"/><rect class="cls-3" x="145.09" y="487.21" width="4.35" height="4.35"/><rect class="cls-3" x="171.21" y="487.21" width="4.35" height="4.35"/><rect class="cls-3" x="66.71" y="491.57" width="4.35" height="4.35"/><rect class="cls-3" x="71.06" y="491.57" width="4.35" height="4.35"/><rect class="cls-3" x="75.42" y="491.57" width="4.35" height="4.35"/><rect class="cls-3" x="84.12" y="491.57" width="4.35" height="4.35"/><rect class="cls-3" x="88.48" y="491.57" width="4.35" height="4.35"/><rect class="cls-3" x="97.19" y="491.57" width="4.35" height="4.35"/><rect class="cls-3" x="110.25" y="491.57" width="4.35" height="4.35"/><rect class="cls-3" x="123.31" y="491.57" width="4.35" height="4.35"/><rect class="cls-3" x="127.67" y="491.57" width="4.35" height="4.35"/><rect class="cls-3" x="132.02" y="491.57" width="4.35" height="4.35"/><rect class="cls-3" x="140.73" y="491.57" width="4.35" height="4.35"/><rect class="cls-3" x="149.44" y="491.57" width="4.35" height="4.35"/><rect class="cls-3" x="153.79" y="491.57" width="4.35" height="4.35"/><rect class="cls-3" x="158.15" y="491.57" width="4.35" height="4.35"/><rect class="cls-3" x="162.5" y="491.57" width="4.35" height="4.35"/><rect class="cls-3" x="166.86" y="491.57" width="4.35" height="4.35"/><rect class="cls-3" x="66.71" y="495.92" width="4.35" height="4.35"/><rect class="cls-3" x="75.42" y="495.92" width="4.35" height="4.35"/><rect class="cls-3" x="84.12" y="495.92" width="4.35" height="4.35"/><rect class="cls-3" x="92.83" y="495.92" width="4.35" height="4.35"/><rect class="cls-3" x="97.19" y="495.92" width="4.35" height="4.35"/><rect class="cls-3" x="101.54" y="495.92" width="4.35" height="4.35"/><rect class="cls-3" x="105.9" y="495.92" width="4.35" height="4.35"/><rect class="cls-3" x="118.96" y="495.92" width="4.35" height="4.35"/><rect class="cls-3" x="132.02" y="495.92" width="4.35" height="4.35"/><rect class="cls-3" x="136.38" y="495.92" width="4.35" height="4.35"/><rect class="cls-3" x="145.09" y="495.92" width="4.35" height="4.35"/><rect class="cls-3" x="149.44" y="495.92" width="4.35" height="4.35"/><rect class="cls-3" x="158.15" y="495.92" width="4.35" height="4.35"/><rect class="cls-3" x="171.21" y="495.92" width="4.35" height="4.35"/><rect class="cls-3" x="66.71" y="500.28" width="4.35" height="4.35"/><rect class="cls-3" x="71.06" y="500.28" width="4.35" height="4.35"/><rect class="cls-3" x="97.19" y="500.28" width="4.35" height="4.35"/><rect class="cls-3" x="101.54" y="500.28" width="4.35" height="4.35"/><rect class="cls-3" x="132.02" y="500.28" width="4.35" height="4.35"/><rect class="cls-3" x="149.44" y="500.28" width="4.35" height="4.35"/><rect class="cls-3" x="158.15" y="500.28" width="4.35" height="4.35"/><rect class="cls-3" x="162.5" y="500.28" width="4.35" height="4.35"/><rect class="cls-3" x="166.86" y="500.28" width="4.35" height="4.35"/><rect class="cls-3" x="171.21" y="500.28" width="4.35" height="4.35"/><rect class="cls-3" x="75.42" y="504.63" width="4.35" height="4.35"/><rect class="cls-3" x="79.77" y="504.63" width="4.35" height="4.35"/><rect class="cls-3" x="92.83" y="504.63" width="4.35" height="4.35"/><rect class="cls-3" x="101.54" y="504.63" width="4.35" height="4.35"/><rect class="cls-3" x="105.9" y="504.63" width="4.35" height="4.35"/><rect class="cls-3" x="110.25" y="504.63" width="4.35" height="4.35"/><rect class="cls-3" x="127.67" y="504.63" width="4.35" height="4.35"/><rect class="cls-3" x="132.02" y="504.63" width="4.35" height="4.35"/><rect class="cls-3" x="145.09" y="504.63" width="4.35" height="4.35"/><rect class="cls-3" x="171.21" y="504.63" width="4.35" height="4.35"/><rect class="cls-3" x="66.71" y="508.98" width="4.35" height="4.35"/><rect class="cls-3" x="75.42" y="508.98" width="4.35" height="4.35"/><rect class="cls-3" x="79.77" y="508.98" width="4.35" height="4.35"/><rect class="cls-3" x="88.48" y="508.98" width="4.35" height="4.35"/><rect class="cls-3" x="97.19" y="508.98" width="4.35" height="4.35"/><rect class="cls-3" x="110.25" y="508.98" width="4.35" height="4.35"/><rect class="cls-3" x="118.96" y="508.98" width="4.35" height="4.35"/><rect class="cls-3" x="127.67" y="508.98" width="4.35" height="4.35"/><rect class="cls-3" x="132.02" y="508.98" width="4.35" height="4.35"/><rect class="cls-3" x="136.38" y="508.98" width="4.35" height="4.35"/><rect class="cls-3" x="140.73" y="508.98" width="4.35" height="4.35"/><rect class="cls-3" x="153.79" y="508.98" width="4.35" height="4.35"/><rect class="cls-3" x="166.86" y="508.98" width="4.35" height="4.35"/><rect class="cls-3" x="66.71" y="513.34" width="4.35" height="4.35"/><rect class="cls-3" x="71.06" y="513.34" width="4.35" height="4.35"/><rect class="cls-3" x="79.77" y="513.34" width="4.35" height="4.35"/><rect class="cls-3" x="84.12" y="513.34" width="4.35" height="4.35"/><rect class="cls-3" x="88.48" y="513.34" width="4.35" height="4.35"/><rect class="cls-3" x="92.83" y="513.34" width="4.35" height="4.35"/><rect class="cls-3" x="97.19" y="513.34" width="4.35" height="4.35"/><rect class="cls-3" x="105.9" y="513.34" width="4.35" height="4.35"/><rect class="cls-3" x="127.67" y="513.34" width="4.35" height="4.35"/><rect class="cls-3" x="132.02" y="513.34" width="4.35" height="4.35"/><rect class="cls-3" x="140.73" y="513.34" width="4.35" height="4.35"/><rect class="cls-3" x="145.09" y="513.34" width="4.35" height="4.35"/><rect class="cls-3" x="153.79" y="513.34" width="4.35" height="4.35"/><rect class="cls-3" x="158.15" y="513.34" width="4.35" height="4.35"/><rect class="cls-3" x="162.5" y="513.34" width="4.35" height="4.35"/><rect class="cls-3" x="166.86" y="513.34" width="4.35" height="4.35"/><rect class="cls-3" x="171.21" y="513.34" width="4.35" height="4.35"/><rect class="cls-3" x="66.71" y="517.69" width="4.35" height="4.35"/><rect class="cls-3" x="88.48" y="517.69" width="4.35" height="4.35"/><rect class="cls-3" x="97.19" y="517.69" width="4.35" height="4.35"/><rect class="cls-3" x="105.9" y="517.69" width="4.35" height="4.35"/><rect class="cls-3" x="118.96" y="517.69" width="4.35" height="4.35"/><rect class="cls-3" x="127.67" y="517.69" width="4.35" height="4.35"/><rect class="cls-3" x="136.38" y="517.69" width="4.35" height="4.35"/><rect class="cls-3" x="140.73" y="517.69" width="4.35" height="4.35"/><rect class="cls-3" x="149.44" y="517.69" width="4.35" height="4.35"/><rect class="cls-3" x="158.15" y="517.69" width="4.35" height="4.35"/><rect class="cls-3" x="162.5" y="517.69" width="4.35" height="4.35"/><rect class="cls-3" x="171.21" y="517.69" width="4.35" height="4.35"/><rect class="cls-3" x="66.71" y="522.05" width="4.35" height="4.35"/><rect class="cls-3" x="75.42" y="522.05" width="4.35" height="4.35"/><rect class="cls-3" x="79.77" y="522.05" width="4.35" height="4.35"/><rect class="cls-3" x="84.12" y="522.05" width="4.35" height="4.35"/><rect class="cls-3" x="92.83" y="522.05" width="4.35" height="4.35"/><rect class="cls-3" x="97.19" y="522.05" width="4.35" height="4.35"/><rect class="cls-3" x="110.25" y="522.05" width="4.35" height="4.35"/><rect class="cls-3" x="114.6" y="522.05" width="4.35" height="4.35"/><rect class="cls-3" x="118.96" y="522.05" width="4.35" height="4.35"/><rect class="cls-3" x="123.31" y="522.05" width="4.35" height="4.35"/><rect class="cls-3" x="132.02" y="522.05" width="4.35" height="4.35"/><rect class="cls-3" x="136.38" y="522.05" width="4.35" height="4.35"/><rect class="cls-3" x="140.73" y="522.05" width="4.35" height="4.35"/><rect class="cls-3" x="145.09" y="522.05" width="4.35" height="4.35"/><rect class="cls-3" x="149.44" y="522.05" width="4.35" height="4.35"/><rect class="cls-3" x="153.79" y="522.05" width="4.35" height="4.35"/><rect class="cls-3" x="162.5" y="522.05" width="4.35" height="4.35"/><rect class="cls-3" x="166.86" y="522.05" width="4.35" height="4.35"/><rect class="cls-3" x="101.54" y="526.4" width="4.35" height="4.35"/><rect class="cls-3" x="105.9" y="526.4" width="4.35" height="4.35"/><rect class="cls-3" x="114.6" y="526.4" width="4.35" height="4.35"/><rect class="cls-3" x="136.38" y="526.4" width="4.35" height="4.35"/><rect class="cls-3" x="153.79" y="526.4" width="4.35" height="4.35"/><rect class="cls-3" x="162.5" y="526.4" width="4.35" height="4.35"/><rect class="cls-3" x="166.86" y="526.4" width="4.35" height="4.35"/><rect class="cls-3" x="66.71" y="530.76" width="4.35" height="4.35"/><rect class="cls-3" x="71.06" y="530.76" width="4.35" height="4.35"/><rect class="cls-3" x="75.42" y="530.76" width="4.35" height="4.35"/><rect class="cls-3" x="79.77" y="530.76" width="4.35" height="4.35"/><rect class="cls-3" x="84.12" y="530.76" width="4.35" height="4.35"/><rect class="cls-3" x="88.48" y="530.76" width="4.35" height="4.35"/><rect class="cls-3" x="92.83" y="530.76" width="4.35" height="4.35"/><rect class="cls-3" x="110.25" y="530.76" width="4.35" height="4.35"/><rect class="cls-3" x="118.96" y="530.76" width="4.35" height="4.35"/><rect class="cls-3" x="127.67" y="530.76" width="4.35" height="4.35"/><rect class="cls-3" x="136.38" y="530.76" width="4.35" height="4.35"/><rect class="cls-3" x="145.09" y="530.76" width="4.35" height="4.35"/><rect class="cls-3" x="153.79" y="530.76" width="4.35" height="4.35"/><rect class="cls-3" x="171.21" y="530.76" width="4.35" height="4.35"/><rect class="cls-3" x="66.71" y="535.11" width="4.35" height="4.35"/><rect class="cls-3" x="92.83" y="535.11" width="4.35" height="4.35"/><rect class="cls-3" x="114.6" y="535.11" width="4.35" height="4.35"/><rect class="cls-3" x="123.31" y="535.11" width="4.35" height="4.35"/><rect class="cls-3" x="132.02" y="535.11" width="4.35" height="4.35"/><rect class="cls-3" x="136.38" y="535.11" width="4.35" height="4.35"/><rect class="cls-3" x="153.79" y="535.11" width="4.35" height="4.35"/><rect class="cls-3" x="171.21" y="535.11" width="4.35" height="4.35"/><rect class="cls-3" x="66.71" y="539.47" width="4.35" height="4.35"/><rect class="cls-3" x="75.42" y="539.47" width="4.35" height="4.35"/><rect class="cls-3" x="79.77" y="539.47" width="4.35" height="4.35"/><rect class="cls-3" x="84.12" y="539.47" width="4.35" height="4.35"/><rect class="cls-3" x="92.83" y="539.47" width="4.35" height="4.35"/><rect class="cls-3" x="101.54" y="539.47" width="4.35" height="4.35"/><rect class="cls-3" x="110.25" y="539.47" width="4.35" height="4.35"/><rect class="cls-3" x="114.6" y="539.47" width="4.35" height="4.35"/><rect class="cls-3" x="118.96" y="539.47" width="4.35" height="4.35"/><rect class="cls-3" x="127.67" y="539.47" width="4.35" height="4.35"/><rect class="cls-3" x="132.02" y="539.47" width="4.35" height="4.35"/><rect class="cls-3" x="136.38" y="539.47" width="4.35" height="4.35"/><rect class="cls-3" x="140.73" y="539.47" width="4.35" height="4.35"/><rect class="cls-3" x="145.09" y="539.47" width="4.35" height="4.35"/><rect class="cls-3" x="149.44" y="539.47" width="4.35" height="4.35"/><rect class="cls-3" x="153.79" y="539.47" width="4.35" height="4.35"/><rect class="cls-3" x="66.71" y="543.82" width="4.35" height="4.35"/><rect class="cls-3" x="75.42" y="543.82" width="4.35" height="4.35"/><rect class="cls-3" x="79.77" y="543.82" width="4.35" height="4.35"/><rect class="cls-3" x="84.12" y="543.82" width="4.35" height="4.35"/><rect class="cls-3" x="92.83" y="543.82" width="4.35" height="4.35"/><rect class="cls-3" x="101.54" y="543.82" width="4.35" height="4.35"/><rect class="cls-3" x="105.9" y="543.82" width="4.35" height="4.35"/><rect class="cls-3" x="118.96" y="543.82" width="4.35" height="4.35"/><rect class="cls-3" x="123.31" y="543.82" width="4.35" height="4.35"/><rect class="cls-3" x="127.67" y="543.82" width="4.35" height="4.35"/><rect class="cls-3" x="145.09" y="543.82" width="4.35" height="4.35"/><rect class="cls-3" x="166.86" y="543.82" width="4.35" height="4.35"/><rect class="cls-3" x="171.21" y="543.82" width="4.35" height="4.35"/><rect class="cls-3" x="66.71" y="548.17" width="4.35" height="4.35"/><rect class="cls-3" x="75.42" y="548.17" width="4.35" height="4.35"/><rect class="cls-3" x="79.77" y="548.17" width="4.35" height="4.35"/><rect class="cls-3" x="84.12" y="548.17" width="4.35" height="4.35"/><rect class="cls-3" x="92.83" y="548.17" width="4.35" height="4.35"/><rect class="cls-3" x="105.9" y="548.17" width="4.35" height="4.35"/><rect class="cls-3" x="114.6" y="548.17" width="4.35" height="4.35"/><rect class="cls-3" x="123.31" y="548.17" width="4.35" height="4.35"/><rect class="cls-3" x="132.02" y="548.17" width="4.35" height="4.35"/><rect class="cls-3" x="140.73" y="548.17" width="4.35" height="4.35"/><rect class="cls-3" x="153.79" y="548.17" width="4.35" height="4.35"/><rect class="cls-3" x="158.15" y="548.17" width="4.35" height="4.35"/><rect class="cls-3" x="162.5" y="548.17" width="4.35" height="4.35"/><rect class="cls-3" x="166.86" y="548.17" width="4.35" height="4.35"/><rect class="cls-3" x="171.21" y="548.17" width="4.35" height="4.35"/><rect class="cls-3" x="66.71" y="552.53" width="4.35" height="4.35"/><rect class="cls-3" x="92.83" y="552.53" width="4.35" height="4.35"/><rect class="cls-3" x="101.54" y="552.53" width="4.35" height="4.35"/><rect class="cls-3" x="110.25" y="552.53" width="4.35" height="4.35"/><rect class="cls-3" x="114.6" y="552.53" width="4.35" height="4.35"/><rect class="cls-3" x="127.67" y="552.53" width="4.35" height="4.35"/><rect class="cls-3" x="132.02" y="552.53" width="4.35" height="4.35"/><rect class="cls-3" x="149.44" y="552.53" width="4.35" height="4.35"/><rect class="cls-3" x="153.79" y="552.53" width="4.35" height="4.35"/><rect class="cls-3" x="162.5" y="552.53" width="4.35" height="4.35"/><rect class="cls-3" x="166.86" y="552.53" width="4.35" height="4.35"/><rect class="cls-3" x="171.21" y="552.53" width="4.35" height="4.35"/><rect class="cls-3" x="66.71" y="556.88" width="4.35" height="4.35"/><rect class="cls-3" x="71.06" y="556.88" width="4.35" height="4.35"/><rect class="cls-3" x="75.42" y="556.88" width="4.35" height="4.35"/><rect class="cls-3" x="79.77" y="556.88" width="4.35" height="4.35"/><rect class="cls-3" x="84.12" y="556.88" width="4.35" height="4.35"/><rect class="cls-3" x="88.48" y="556.88" width="4.35" height="4.35"/><rect class="cls-3" x="92.83" y="556.88" width="4.35" height="4.35"/><rect class="cls-3" x="101.54" y="556.88" width="4.35" height="4.35"/><rect class="cls-3" x="105.9" y="556.88" width="4.35" height="4.35"/><rect class="cls-3" x="110.25" y="556.88" width="4.35" height="4.35"/><rect class="cls-3" x="118.96" y="556.88" width="4.35" height="4.35"/><rect class="cls-3" x="136.38" y="556.88" width="4.35" height="4.35"/><rect class="cls-3" x="140.73" y="556.88" width="4.35" height="4.35"/><rect class="cls-3" x="158.15" y="556.88" width="4.35" height="4.35"/><rect class="cls-3" x="171.21" y="556.88" width="4.35" height="4.35"/><line class="cls-4" x1="214.58" y1="349.17" x2="207.32" y2="345.44"/><line class="cls-5" x1="210.46" y1="351.43" x2="210.46" y2="359.72"/><line class="cls-5" x1="210.46" y1="335.09" x2="210.46" y2="343.38"/><polyline class="cls-6" points="207.28 396.71 214.58 396.71 214.58 333.24 207.28 328.19"/><line class="cls-4" x1="35.16" y1="349.56" x2="42.42" y2="345.83"/><line class="cls-5" x1="39.28" y1="351.43" x2="39.28" y2="359.72"/><line class="cls-5" x1="39.28" y1="335.09" x2="39.28" y2="343.38"/><polygon class="cls-6" points="42.46 396.71 35.16 396.71 35.16 333.24 42.46 328.38 42.46 396.71"/><rect class="cls-4" x="105.21" y="348.47" width="38.63" height="44.48"/><rect class="cls-7" x="102.94" y="344.23" width="43.17" height="4.24"/><path class="cls-7" d="M111.91,392.85v-23c0-10.19,12.61-12.61,12.61-12.61h0s12.61,2,12.61,12.61v23"/><path class="cls-8" d="M115.6,392.85V372.07c0-7.47,8.92-10.59,8.92-10.59h0s8.93,2.52,8.93,10.59v20.78"/><line class="cls-8" x1="109.04" y1="352.02" x2="109.04" y2="354.9"/><line class="cls-7" x1="112.89" y1="352.02" x2="112.89" y2="354.9"/><line class="cls-8" x1="116.73" y1="352.02" x2="116.73" y2="354.9"/><line class="cls-7" x1="120.58" y1="352.02" x2="120.58" y2="354.9"/><line class="cls-8" x1="124.42" y1="352.02" x2="124.42" y2="354.9"/><line class="cls-7" x1="128.27" y1="352.02" x2="128.27" y2="354.9"/><line class="cls-8" x1="132.11" y1="352.02" x2="132.11" y2="354.9"/><line class="cls-7" x1="135.96" y1="352.02" x2="135.96" y2="354.9"/><line class="cls-8" x1="139.8" y1="352.02" x2="139.8" y2="354.9"/><line class="cls-4" x1="100.47" y1="340.2" x2="149.49" y2="340.2"/><rect class="cls-8" x="104.3" y="333.12" width="40.14" height="3.54"/><path class="cls-8" d="M129,324c0-2.43-4.3-2.59-4.3-4.13h-.08c0,1.54-4.29,1.7-4.29,4.13a2.52,2.52,0,0,0,1.21,2.19h-.81V330h7.86V326.2h-.8A2.52,2.52,0,0,0,129,324Z"/><path class="cls-7" d="M115.24,324c0-2.43-4.29-2.59-4.29-4.13h-.08c0,1.54-4.3,1.7-4.3,4.13a2.52,2.52,0,0,0,1.21,2.19H107V330h7.87V326.2H114A2.52,2.52,0,0,0,115.24,324Z"/><path class="cls-7" d="M142.78,324c0-2.43-4.3-2.59-4.3-4.13h-.08c0,1.54-4.3,1.7-4.3,4.13a2.55,2.55,0,0,0,1.21,2.19h-.8V330h7.86V326.2h-.8A2.55,2.55,0,0,0,142.78,324Z"/><polygon class="cls-8" points="147.54 311.45 101.8 311.45 90.53 313.47 90.53 317.3 158.81 317.3 158.81 313.47 147.54 311.45"/><path class="cls-5" d="M72,338.68v-6.25C72,330,67.58,328,67.58,328h0s-4.44,2-4.44,4.44v6.25"/><line class="cls-4" x1="57.59" y1="341.61" x2="77.76" y2="341.61"/><line class="cls-5" x1="67.47" y1="345.04" x2="67.47" y2="353.81"/><line class="cls-9" x1="62.23" y1="345.04" x2="62.23" y2="353.81"/><line class="cls-9" x1="72.92" y1="345.04" x2="72.92" y2="353.81"/><rect class="cls-6" x="57.59" y="324.16" width="19.97" height="72.55"/><path class="cls-5" d="M53.39,339.89v-6.26c0-2.45-3.36-3.51-3.36-3.51h0s-3.37,2.92-3.37,5.37v6.25"/><line class="cls-4" x1="42.46" y1="345.83" x2="57.75" y2="341.61"/><line class="cls-5" x1="49.95" y1="347.19" x2="49.95" y2="355.96"/><line class="cls-9" x1="45.98" y1="348.29" x2="45.98" y2="357.06"/><line class="cls-9" x1="54.08" y1="346.05" x2="54.08" y2="354.82"/><polygon class="cls-7" points="57.6 396.71 42.46 396.71 42.46 328.38 57.6 324.2 57.6 396.71"/><path class="cls-5" d="M81.76,339.89v-6.26c0-2.45,3.37-3.51,3.37-3.51h0s3.36,2.92,3.36,5.37v6.25"/><line class="cls-4" x1="92.7" y1="345.83" x2="77.41" y2="341.61"/><line class="cls-5" x1="85.21" y1="347.19" x2="85.21" y2="355.96"/><line class="cls-9" x1="89.18" y1="348.29" x2="89.18" y2="357.06"/><line class="cls-9" x1="81.08" y1="346.05" x2="81.08" y2="354.82"/><polygon class="cls-6" points="77.56 396.71 92.7 396.71 92.7 328.38 77.56 324.2 77.56 396.71"/><line class="cls-8" x1="92.7" y1="328.38" x2="77.56" y2="324.2"/><line class="cls-8" x1="77.56" y1="396.71" x2="158.97" y2="396.71"/><line class="cls-4" x1="100" y1="349.17" x2="92.74" y2="345.44"/><line class="cls-5" x1="95.88" y1="351.43" x2="95.88" y2="359.72"/><line class="cls-5" x1="95.88" y1="335.09" x2="95.88" y2="343.38"/><polygon class="cls-8" points="92.7 396.71 100 396.71 100 333.24 92.7 328.19 92.7 396.71"/><line class="cls-8" x1="96.03" y1="317.7" x2="96.03" y2="330.51"/><path class="cls-5" d="M177.56,338.68v-6.25C177.56,330,182,328,182,328h0s4.44,2,4.44,4.44v6.25"/><line class="cls-4" x1="191.98" y1="341.61" x2="171.81" y2="341.61"/><line class="cls-5" x1="182.1" y1="345.04" x2="182.1" y2="353.81"/><line class="cls-9" x1="187.35" y1="345.04" x2="187.35" y2="353.81"/><line class="cls-9" x1="176.65" y1="345.04" x2="176.65" y2="353.81"/><rect class="cls-6" x="172.01" y="324.16" width="19.97" height="72.55" transform="translate(364 720.87) rotate(180)"/><path class="cls-5" d="M196.34,339.89v-6.26c0-2.45,3.37-3.51,3.37-3.51h0s3.36,2.92,3.36,5.37v6.25"/><line class="cls-4" x1="207.28" y1="345.83" x2="191.98" y2="341.61"/><line class="cls-5" x1="199.78" y1="347.19" x2="199.78" y2="355.96"/><line class="cls-9" x1="203.76" y1="348.29" x2="203.76" y2="357.06"/><line class="cls-9" x1="195.66" y1="346.05" x2="195.66" y2="354.82"/><polygon class="cls-7" points="192.14 396.71 207.28 396.71 207.28 328.38 192.14 324.2 192.14 396.71"/><path class="cls-5" d="M167.82,339.89v-6.26c0-2.45-3.36-3.51-3.36-3.51h0s-3.37,2.92-3.37,5.37v6.25"/><line class="cls-4" x1="156.89" y1="345.83" x2="172.18" y2="341.61"/><line class="cls-5" x1="164.38" y1="347.19" x2="164.38" y2="355.96"/><line class="cls-9" x1="160.4" y1="348.29" x2="160.4" y2="357.06"/><line class="cls-9" x1="168.51" y1="346.05" x2="168.51" y2="354.82"/><polyline class="cls-8" points="172.03 396.71 156.88 396.71 156.88 328.38 172.03 324.2"/><line class="cls-4" x1="149.59" y1="349.17" x2="156.85" y2="345.44"/><line class="cls-5" x1="153.71" y1="351.43" x2="153.71" y2="359.72"/><line class="cls-5" x1="153.71" y1="335.09" x2="153.71" y2="343.38"/><polygon class="cls-8" points="156.88 396.71 149.59 396.71 149.59 333.24 156.88 328.19 156.88 396.71"/><line class="cls-8" x1="153.56" y1="317.7" x2="153.56" y2="330.51"/><path class="cls-10" d="M59.39,54.3l1.06,0,2.9-2.89.14-1.23a13,13,0,0,0-21.2,6.32,1.58,1.58,0,0,1,1-.06l5.79-1s.3-.49.44-.46a7.21,7.21,0,0,1,9.88-.75Z"/><path class="cls-11" d="M67.41,56.52a13,13,0,0,0-3.93-6.32l-4.1,4.1a7.18,7.18,0,0,1,2.7,5.62v.72a3.62,3.62,0,0,1,0,7.23H54.85l-.72.73v4.34l.72.72h7.23a9.4,9.4,0,0,0,5.33-17.14Z"/><path class="cls-12" d="M47.62,73.66h7.22V67.87H47.62a3.72,3.72,0,0,1-1.49-.32l-1,.32L42.2,70.76l-.26,1A9.37,9.37,0,0,0,47.62,73.66Z"/><path class="cls-13" d="M47.62,54.86A9.39,9.39,0,0,0,42,71.74l4.19-4.19a3.61,3.61,0,1,1,4.77-4.78l4.19-4.19A9.37,9.37,0,0,0,47.62,54.86Z"/><path class="cls-14" d="M146.83,63.4l5.39-2.24a1.8,1.8,0,0,0-.85-.92,2.69,2.69,0,0,0-1.39-.36,3.13,3.13,0,0,0-2.18,1,3.22,3.22,0,0,0-1,2.56Zm3.36,6.22a5.76,5.76,0,0,1-4.28-1.74,5.87,5.87,0,0,1-1.71-4.29,6,6,0,0,1,1.65-4.35,5.44,5.44,0,0,1,4-1.69,5,5,0,0,1,2,.4,4.77,4.77,0,0,1,1.56,1,7.17,7.17,0,0,1,1,1.22,7.38,7.38,0,0,1,.6,1.19l.27.69-8.07,3.33a3.08,3.08,0,0,0,2.93,1.83,3.44,3.44,0,0,0,3-1.67L155.22,67a6.82,6.82,0,0,1-1.95,1.85,5.48,5.48,0,0,1-3.08.82Zm-7.27-18.1V69.25h-2.65V51.52Zm-10,15.72a2.93,2.93,0,0,0,2.3-1,3.74,3.74,0,0,0,.92-2.59,3.82,3.82,0,0,0-.92-2.63,2.94,2.94,0,0,0-2.3-1,3.15,3.15,0,0,0-2.38,1,3.73,3.73,0,0,0-1,2.63,3.64,3.64,0,0,0,1,2.59,3.14,3.14,0,0,0,2.38,1ZM132.7,75A5.28,5.28,0,0,1,129.32,74a6.13,6.13,0,0,1-2-2.49l2.31-1A3.86,3.86,0,0,0,130.8,72a2.87,2.87,0,0,0,1.9.64,3.07,3.07,0,0,0,2.36-.91,3.67,3.67,0,0,0,.86-2.63v-.87h-.09a3.89,3.89,0,0,1-3.18,1.37,5.5,5.5,0,0,1-4-1.76,5.82,5.82,0,0,1-1.74-4.25,5.89,5.89,0,0,1,1.74-4.29,5.47,5.47,0,0,1,4-1.77,4.38,4.38,0,0,1,1.87.39,3.81,3.81,0,0,1,1.31,1h.09v-1h2.52V68.75a6.28,6.28,0,0,1-1.62,4.72A5.63,5.63,0,0,1,132.7,75ZM117.31,66.2a3.29,3.29,0,0,0,4.8,0,3.56,3.56,0,0,0,1-2.61,3.62,3.62,0,0,0-1-2.63,3.35,3.35,0,0,0-4.83,0,3.95,3.95,0,0,0,0,5.24Zm6.7,1.69a6.2,6.2,0,0,1-8.59,0,6.15,6.15,0,0,1,0-8.61,6.2,6.2,0,0,1,8.59,0,6.15,6.15,0,0,1,0,8.61ZM104.1,66.2a3.29,3.29,0,0,0,4.8,0,3.92,3.92,0,0,0,0-5.24,3.33,3.33,0,0,0-4.82,0,3.95,3.95,0,0,0,0,5.24Zm6.7,1.69a6.21,6.21,0,0,1-8.6,0,6.15,6.15,0,0,1,0-8.61,6.21,6.21,0,0,1,8.6,0,6.15,6.15,0,0,1,0,8.61Zm-20,1.73a9.24,9.24,0,0,1-6.69-2.75,9.18,9.18,0,0,1,0-13.24,9.2,9.2,0,0,1,6.69-2.75,9,9,0,0,1,6.43,2.58l-1.81,1.8a6.52,6.52,0,0,0-4.62-1.82,6.43,6.43,0,0,0-4.76,2,6.92,6.92,0,0,0,0,9.65,6.81,6.81,0,0,0,9.5.12A5.46,5.46,0,0,0,96.9,62H90.77V59.4h8.62a8.35,8.35,0,0,1,.14,1.6,8.08,8.08,0,0,1-2.22,6A8.63,8.63,0,0,1,90.77,69.62Z"/><path class="cls-14" d="M169.25,69.62A8.64,8.64,0,0,1,163.19,55a8.23,8.23,0,0,1,6.06-2.45,7.54,7.54,0,0,1,6,2.68l-1.46,1.41a5.54,5.54,0,0,0-4.55-2.08,6.2,6.2,0,0,0-4.51,1.81,7,7,0,0,0,0,9.46,6.16,6.16,0,0,0,4.51,1.81,6.44,6.44,0,0,0,5-2.38l1.46,1.46a7.82,7.82,0,0,1-2.81,2.14A8.53,8.53,0,0,1,169.25,69.62Z"/><rect class="cls-15" x="177.62" y="52.89" width="2.1" height="16.37"/><path class="cls-14" d="M184.72,66.59a3.53,3.53,0,0,0,5.14,0,4.5,4.5,0,0,0,0-5.87,3.53,3.53,0,0,0-5.14,0,4.5,4.5,0,0,0,0,5.87Zm-1.57-7.2a5.89,5.89,0,0,1,8.28,0,6.42,6.42,0,0,1,0,8.53,5.89,5.89,0,0,1-8.28,0,6.42,6.42,0,0,1,0-8.53Z"/><path class="cls-14" d="M204.68,69.25h-2V67.7h-.09a3.94,3.94,0,0,1-1.46,1.36,4.19,4.19,0,0,1-2.08.56,4,4,0,0,1-3.19-1.28,5.1,5.1,0,0,1-1.09-3.43V58.05h2.11v6.52c0,2.09.92,3.13,2.76,3.13a2.59,2.59,0,0,0,2.13-1,3.81,3.81,0,0,0,.82-2.42V58.05h2.1Z"/><path class="cls-14" d="M212.16,67.7a3.38,3.38,0,0,0,2.53-1.1,4.7,4.7,0,0,0,0-5.9,3.45,3.45,0,0,0-5.05,0,4.63,4.63,0,0,0,0,5.87,3.36,3.36,0,0,0,2.52,1.11Zm-.34,1.92a4.93,4.93,0,0,1-3.75-1.71,6.52,6.52,0,0,1,0-8.51,4.93,4.93,0,0,1,3.75-1.71,4.67,4.67,0,0,1,2.29.55,3.78,3.78,0,0,1,1.52,1.37h.1l-.1-1.56V52.89h2.11V69.25h-2V67.7h-.1a3.78,3.78,0,0,1-1.52,1.37A4.67,4.67,0,0,1,211.82,69.62Z"/><text class="cls-16" transform="translate(56.67 124.83)"><tspan class="cls-17">C</tspan><tspan class="cls-18" x="18.8" y="0">o</tspan><tspan x="33.77" y="0">mmun</tspan><tspan class="cls-19" x="109.33" y="0">i</tspan><tspan class="cls-20" x="115.7" y="0">t</tspan><tspan x="125.81" y="0">y </tspan><tspan x="17.29" y="25.98">D</tspan><tspan class="cls-18" x="35.96" y="25.98">a</tspan><tspan x="49.63" y="25.98">y 2</tspan><tspan class="cls-18" x="83.54" y="25.98">0</tspan><tspan x="100.38" y="25.98">22</tspan></text><path class="cls-21" d="M61.83,199.34H48a3.15,3.15,0,0,1-3.14-3.14V182.34A3.15,3.15,0,0,1,48,179.19h1.81v-.81a1.17,1.17,0,1,1,2.33,0v.81H57.7v-.81a1.17,1.17,0,1,1,2.33,0v.81h1.8A3.15,3.15,0,0,1,65,182.34V196.2A3.15,3.15,0,0,1,61.83,199.34ZM47.16,187.46v8.74A.81.81,0,0,0,48,197H61.83a.82.82,0,0,0,.82-.81v-8.74Zm0-2.33H62.65v-2.79a.82.82,0,0,0-.82-.82H60v.82a1.17,1.17,0,0,1-2.33,0v-.82H52.11v.82a1.17,1.17,0,0,1-2.33,0v-.82H48a.82.82,0,0,0-.81.82Z"/><path class="cls-21" d="M55.21,236.94l-.74-.6c-.36-.28-8.72-7.06-8.72-15.21a9.45,9.45,0,0,1,18.89,0c0,7.83-8.34,14.9-8.7,15.2Zm0-22.92a7.12,7.12,0,0,0-7.11,7.11c0,5.71,5.14,11,7.1,12.74,2-1.84,7.13-7.25,7.13-12.74A7.12,7.12,0,0,0,55.19,214Z"/><circle class="cls-21" cx="55.19" cy="220.55" r="3.59"/><text class="cls-22" transform="translate(72.11 191.84)">24Th<tspan class="cls-23" x="41.09" y="0"> </tspan><tspan x="44.69" y="0">Se</tspan><tspan class="cls-24" x="65.12" y="0">pt</tspan><tspan x="82.12" y="0">ember</tspan></text><text class="cls-22" transform="translate(72.11 232.74)"><tspan class="cls-24">C</tspan><tspan class="cls-25" x="13.01" y="0">o</tspan><tspan x="23.38" y="0">n</tspan><tspan class="cls-26" x="33.68" y="0">r</tspan><tspan class="cls-27" x="40.45" y="0">a</tspan><tspan x="50" y="0">d </tspan><tspan class="cls-28" x="65.02" y="0">P</tspan><tspan x="75.46" y="0">une</tspan></text><text class="cls-16" transform="translate(63.44 275.35)"><tspan class="cls-29">E</tspan><tspan class="cls-30" x="14.3" y="0">v</tspan><tspan x="27.79" y="0">e</tspan><tspan class="cls-31" x="42.41" y="0">n</tspan><tspan x="56.63" y="0">t p</tspan><tspan class="cls-32" x="88.19" y="0">a</tspan><tspan x="102" y="0">ss</tspan></text><g class="cls-33"><path class="cls-34" d="M233.89,136.47a15.2,15.2,0,0,1,0-30.39h61.39a15.2,15.2,0,0,1,0,30.39Z"/></g><g class="cls-35"><path class="cls-36" d="M17.53,292.11a15.19,15.19,0,1,1-30.38,0V261.42a15.19,15.19,0,1,1,30.38,0Z"/></g><rect class="cls-37" x="-8.52" y="87.3" width="30.69" height="30.69"/><g class="cls-38"><rect class="cls-36" x="230" y="186.18" width="30.69" height="30.69"/></g><g class="cls-39"><circle class="cls-40" cx="25.09" cy="160.14" r="17.51" transform="translate(-132.75 123.26) rotate(-67.94)"/></g><g class="cls-41"><path class="cls-42" d="M241.68,295.88A12.5,12.5,0,1,1,224,313.56L206.13,295.7A12.51,12.51,0,0,1,223.82,278Z"/></g></svg>