<svg width="50" height="50" viewBox="0 0 50 50" fill="none" xmlns="http://www.w3.org/2000/svg">
<circle cx="25" cy="25" r="25" fill="black"/>
<path d="M19.998 14C16.139 14 13 17.142 13 21.002V31.002C13 34.861 16.142 38 20.002 38H30.002C33.861 38 37 34.858 37 30.998V20.998C37 17.139 33.858 14 29.998 14H19.998ZM32 18C32.552 18 33 18.448 33 19C33 19.552 32.552 20 32 20C31.448 20 31 19.552 31 19C31 18.448 31.448 18 32 18ZM25 20C28.309 20 31 22.691 31 26C31 29.309 28.309 32 25 32C21.691 32 19 29.309 19 26C19 22.691 21.691 20 25 20ZM25 22C23.9391 22 22.9217 22.4214 22.1716 23.1716C21.4214 23.9217 21 24.9391 21 26C21 27.0609 21.4214 28.0783 22.1716 28.8284C22.9217 29.5786 23.9391 30 25 30C26.0609 30 27.0783 29.5786 27.8284 28.8284C28.5786 28.0783 29 27.0609 29 26C29 24.9391 28.5786 23.9217 27.8284 23.1716C27.0783 22.4214 26.0609 22 25 22V22Z" fill="white"/>
</svg>
