<svg width="50" height="50" viewBox="0 0 50 50" fill="none" xmlns="http://www.w3.org/2000/svg">
<circle cx="25" cy="25" r="25" fill="black"/>
<path d="M25 9C16.164 9 9 16.164 9 25C9 33.836 16.164 41 25 41C33.836 41 41 33.836 41 25C41 16.164 33.836 9 25 9ZM18.9947 16.204C20.1173 16.204 20.8653 16.952 20.8653 17.9493C20.8653 18.9467 20.1173 19.6947 18.8707 19.6947C17.748 19.696 17 18.9467 17 17.9493C17 16.952 17.748 16.204 18.9947 16.204ZM21 31.6667H17V21H21V31.6667ZM34.3333 31.6667H30.568V25.8373C30.568 24.2253 29.564 23.8533 29.188 23.8533C28.812 23.8533 27.556 24.1013 27.556 25.8373C27.556 26.0853 27.556 31.6667 27.556 31.6667H23.6667V21H27.5573V22.488C28.0587 21.62 29.0627 21 30.9453 21C32.828 21 34.3333 22.488 34.3333 25.8373V31.6667Z" fill="white"/>
</svg>
