<svg width="400" height="201" viewBox="0 0 400 201" fill="none" xmlns="http://www.w3.org/2000/svg">
<path d="M84.8158 92.948C79.7413 92.948 76.3359 95.9025 76.3359 101.634V105.721C76.8511 105.467 77.4166 105.333 77.9907 105.327C78.5658 105.327 79.1333 105.459 79.6502 105.711V101.615C79.6502 97.8978 81.703 95.9888 84.8302 95.9888C87.9573 95.9888 89.9814 97.8978 89.9814 101.615V110.546H93.286V101.615C93.2956 95.8498 89.8903 92.948 84.8158 92.948Z" fill="black"/>
<path d="M95.0942 101.964C95.0942 96.7509 98.9313 92.9282 104.337 92.9282C109.742 92.9282 113.512 96.7653 113.512 101.964V103.178H98.5668C99.0464 106.238 101.349 107.941 104.322 107.941C106.548 107.941 108.111 107.245 109.119 105.754H112.764C111.445 108.948 108.318 111.001 104.322 111.001C98.9169 111.001 95.0942 107.178 95.0942 101.964ZM110.035 100.228C109.373 97.4799 107.119 95.9883 104.337 95.9883C101.555 95.9883 99.3342 97.5183 98.6723 100.228H110.035Z" fill="black"/>
<path d="M115.277 101.964C115.277 96.7555 119.114 92.9329 124.52 92.9329C129.925 92.9329 133.762 96.7699 133.762 101.964C133.762 107.159 129.925 111 124.52 111C119.114 111 115.277 107.178 115.277 101.964ZM130.429 101.964C130.429 98.4918 128.064 95.9881 124.52 95.9881C120.975 95.9881 118.616 98.4918 118.616 101.964C118.616 105.437 120.975 107.94 124.515 107.94C128.055 107.94 130.429 105.442 130.429 101.964V101.964Z" fill="black"/>
<path d="M152.64 113.965H153.024C155.144 113.965 155.94 113.006 155.94 110.607V93.5039H159.245V110.387C159.245 114.627 157.576 116.814 153.336 116.814H152.64V113.965Z" fill="black"/>
<path d="M150.99 112.199H147.686V108.127H139.316C138.552 108.153 137.795 107.968 137.13 107.591C136.465 107.215 135.917 106.661 135.546 105.992C135.245 105.364 135.128 104.663 135.208 103.971C135.288 103.278 135.561 102.622 135.997 102.079L143.508 92.2223C144.027 91.5217 144.754 91.0024 145.585 90.7383C146.416 90.4742 147.309 90.4787 148.138 90.7511C148.966 91.0235 149.687 91.55 150.199 92.2558C150.712 92.9616 150.988 93.8108 150.99 94.6828V105.196H153.47V108.127H150.99V112.199ZM138.745 103.882C138.647 104.023 138.593 104.19 138.592 104.362C138.591 104.471 138.612 104.579 138.654 104.68C138.695 104.781 138.756 104.873 138.833 104.95C138.911 105.027 139.002 105.088 139.103 105.13C139.204 105.171 139.312 105.192 139.422 105.191H147.686V94.6012C147.692 94.423 147.639 94.2477 147.536 94.1021C147.433 93.9566 147.285 93.8489 147.115 93.7955C147.017 93.7675 146.915 93.753 146.813 93.7523C146.684 93.7522 146.556 93.7842 146.442 93.8453C146.329 93.9064 146.232 93.9947 146.16 94.1024L138.745 103.882Z" fill="black"/>
<path d="M157.609 86.4868C157.049 86.4859 156.502 86.651 156.036 86.9614C155.57 87.2718 155.206 87.7134 154.991 88.2304C154.776 88.7474 154.72 89.3165 154.828 89.8658C154.937 90.415 155.206 90.9197 155.602 91.3159C155.997 91.7121 156.501 91.9821 157.05 92.0917C157.599 92.2013 158.169 92.1455 158.686 91.9315C159.203 91.7175 159.646 91.3548 159.957 90.8893C160.268 90.4238 160.434 89.8765 160.434 89.3166C160.434 88.5669 160.137 87.8479 159.607 87.3173C159.077 86.7868 158.359 86.4881 157.609 86.4868V86.4868Z" fill="#018BFF"/>
<path d="M77.8467 106.377C77.233 106.378 76.6364 106.58 76.1488 106.953L73.0408 104.828C73.11 104.58 73.1455 104.323 73.1463 104.065C73.153 103.505 72.9931 102.956 72.687 102.487C72.3809 102.018 71.9423 101.651 71.427 101.432C70.9117 101.213 70.3429 101.152 69.7928 101.257C69.2428 101.361 68.7363 101.627 68.3376 102.021C67.939 102.414 67.6662 102.917 67.5539 103.465C67.4416 104.014 67.4949 104.583 67.7069 105.102C67.919 105.62 68.2803 106.063 68.7449 106.376C69.2096 106.688 69.7566 106.856 70.3165 106.857C70.9304 106.857 71.5273 106.655 72.0144 106.281L75.1128 108.42C74.9721 108.921 74.9721 109.45 75.1128 109.95L72.0048 112.075C71.5203 111.704 70.9272 111.501 70.3165 111.5C69.7564 111.499 69.2087 111.664 68.7426 111.975C68.2765 112.285 67.913 112.727 67.6983 113.244C67.4835 113.762 67.427 114.331 67.5361 114.88C67.6451 115.43 67.9147 115.934 68.3108 116.33C68.7068 116.726 69.2115 116.996 69.7609 117.105C70.3102 117.214 70.8796 117.158 71.3969 116.943C71.9142 116.728 72.3561 116.365 72.6666 115.899C72.9772 115.433 73.1425 114.885 73.1416 114.325C73.1414 114.07 73.1075 113.817 73.0408 113.572L76.1488 111.447C76.6364 111.82 77.233 112.022 77.8467 112.022C78.5605 111.971 79.2285 111.652 79.7161 111.128C80.2037 110.604 80.4749 109.915 80.4749 109.2C80.4749 108.484 80.2037 107.795 79.7161 107.271C79.2285 106.748 78.5605 106.428 77.8467 106.377V106.377Z" fill="#018BFF"/>
<path d="M182.064 111.39C185.906 111.39 188.817 109.169 189.688 105.868H187.647C186.836 108.089 184.765 109.529 182.064 109.529C178.522 109.529 176.121 107.008 176.121 103.587C176.121 100.165 178.522 97.6438 182.064 97.6438C184.765 97.6438 186.836 99.0845 187.647 101.306H189.688C188.817 98.004 185.906 95.783 182.064 95.783C177.382 95.783 174.08 99.0845 174.08 103.587C174.08 108.089 177.382 111.39 182.064 111.39ZM199.474 111.39C204.157 111.39 207.458 108.089 207.458 103.587C207.458 99.0845 204.157 95.783 199.474 95.783C194.792 95.783 191.491 99.0845 191.491 103.587C191.491 108.089 194.792 111.39 199.474 111.39ZM199.474 109.529C195.933 109.529 193.532 107.008 193.532 103.587C193.532 100.165 195.933 97.6438 199.474 97.6438C203.016 97.6438 205.417 100.165 205.417 103.587C205.417 107.008 203.016 109.529 199.474 109.529ZM209.795 111H211.805V102.326C211.805 99.1745 213.546 97.6438 215.947 97.6438C218.348 97.6438 220.149 99.2346 220.149 102.326V111H222.16V102.326C222.16 99.2346 223.931 97.6438 226.332 97.6438C228.733 97.6438 230.474 99.1745 230.474 102.326V111H232.485V102.326C232.485 97.914 229.904 95.783 226.482 95.783C224.051 95.783 222.07 96.9235 221.14 99.1145C220.179 96.9235 218.198 95.783 215.797 95.783C212.376 95.783 209.795 97.914 209.795 102.326V111ZM235.412 111H237.423V102.326C237.423 99.1745 239.164 97.6438 241.565 97.6438C243.966 97.6438 245.767 99.2346 245.767 102.326V111H247.778V102.326C247.778 99.2346 249.548 97.6438 251.949 97.6438C254.351 97.6438 256.091 99.1745 256.091 102.326V111H258.102V102.326C258.102 97.914 255.521 95.783 252.1 95.783C249.668 95.783 247.687 96.9235 246.757 99.1145C245.797 96.9235 243.816 95.783 241.415 95.783C237.993 95.783 235.412 97.914 235.412 102.326V111ZM268.352 111.39C272.735 111.39 275.676 108.839 275.676 103.917V96.1732H273.665V103.917C273.665 107.548 271.564 109.529 268.352 109.529C265.141 109.529 263.04 107.548 263.04 103.917V96.1732H261.029V103.917C261.029 108.839 263.97 111.39 268.352 111.39ZM278.615 111H280.626V103.256C280.626 99.5947 282.727 97.6438 285.939 97.6438C289.15 97.6438 291.251 99.5947 291.251 103.256V111H293.262V103.256C293.262 98.3342 290.321 95.783 285.939 95.783C281.557 95.783 278.615 98.3342 278.615 103.256V111ZM297.762 93.2918C298.633 93.2918 299.293 92.6315 299.293 91.7611C299.293 90.8907 298.633 90.2304 297.762 90.2304C296.892 90.2304 296.232 90.8907 296.232 91.7611C296.232 92.6315 296.892 93.2918 297.762 93.2918ZM296.772 111H298.783V96.1732H296.772V111ZM308.092 111.39C311.513 111.39 313.854 109.439 313.854 105.537V105.207H311.903V105.537C311.903 108.269 310.373 109.529 308.092 109.529C305.78 109.529 304.28 108.239 304.28 105.537V98.004H313.014V96.1732H304.28V90.9207H302.269V105.537C302.269 109.439 304.64 111.39 308.092 111.39ZM323.601 117.723C327.742 117.723 331.014 115.622 331.014 110.46V96.1732H329.003V103.827C329.003 107.458 326.872 109.439 323.691 109.439C320.479 109.439 318.378 107.488 318.378 103.827V96.1732H316.367V103.827C316.367 108.899 319.429 111.3 323.39 111.3C325.972 111.3 327.953 110.16 329.003 108.029V110.52C329.003 114.392 326.782 115.952 323.601 115.952C321.139 115.952 319.309 114.962 318.528 112.951H316.517C317.448 116.162 320.239 117.723 323.601 117.723Z" fill="black"/>
</svg>
