<svg width="50" height="50" viewBox="0 0 50 50" fill="none" xmlns="http://www.w3.org/2000/svg">
<circle cx="25" cy="25" r="25" fill="black"/>
<path d="M38.101 17.001C37.144 17.426 36.116 17.712 35.037 17.841C36.139 17.181 36.984 16.136 37.382 14.89C36.352 15.501 35.21 15.945 33.994 16.185C33.021 15.148 31.635 14.5 30.101 14.5C27.155 14.5 24.767 16.889 24.767 19.834C24.767 20.252 24.815 20.66 24.905 21.049C20.472 20.827 16.542 18.703 13.91 15.475C13.452 16.263 13.189 17.179 13.189 18.158C13.189 20.008 14.13 21.641 15.561 22.597C14.687 22.569 13.864 22.329 13.145 21.93C13.145 21.953 13.145 21.974 13.145 21.997C13.145 24.582 14.983 26.738 17.424 27.227C16.977 27.349 16.505 27.414 16.018 27.414C15.675 27.414 15.34 27.38 15.015 27.319C15.694 29.438 17.664 30.981 19.998 31.024C18.173 32.455 15.873 33.308 13.373 33.308C12.943 33.308 12.518 33.283 12.1 33.233C14.461 34.746 17.264 35.629 20.277 35.629C30.089 35.629 35.453 27.501 35.453 20.452C35.453 20.221 35.448 19.991 35.438 19.762C36.481 19.009 37.386 18.07 38.101 17.001Z" fill="white"/>
</svg>
