<svg width="50" height="50" viewBox="0 0 50 50" fill="none" xmlns="http://www.w3.org/2000/svg">
<circle cx="25" cy="25" r="25" fill="black"/>
<path d="M36.9391 19.7C36.7 18.3805 35.561 17.4195 34.2391 17.1195C32.261 16.7 28.6 16.4 24.6391 16.4C20.6805 16.4 16.961 16.7 14.9805 17.1195C13.661 17.4195 12.5196 18.3195 12.2805 19.7C12.0391 21.2 11.8 23.3 11.8 26C11.8 28.7 12.0391 30.8 12.3391 32.3C12.5805 33.6195 13.7196 34.5805 15.0391 34.8805C17.1391 35.3 20.7391 35.6 24.7 35.6C28.661 35.6 32.261 35.3 34.361 34.8805C35.6805 34.5805 36.8196 33.6805 37.061 32.3C37.3 30.8 37.6 28.6391 37.661 26C37.5391 23.3 37.2391 21.2 36.9391 19.7ZM21.4 30.2V21.8L28.7196 26L21.4 30.2Z" fill="white"/>
</svg>
